# xmcd
#
# Track frame offsets:
#	150
#	10728
#	20865
#	37515
#	55170
#	72985
#	85208
#	103148
#	120745
#	139578
#	156930
#	171458
#	188318
#	203520
#	219685
#	234753
#	249903
#	265813
#	281643
#	297583
#
# Disc length: 4156
#
# Revision: 2
# Processed by: cddbd v1.5.1PL0 Copyright (c) Steve Scherf et al.
# Submitted via: CDex 1.40Beta8
# Normalized: r0:DSETVAR1,TDELIM( - ),TSWAP
#
DISCID=17103a14
DTITLE=Various Artist - Top Hits USA RC27
DYEAR=1994
DGENRE=Country
TTITLE0=Clay Walker - If I Could Make A Living
TTITLE1=George Strait - The Big One
TTITLE2=Tracy Lawrence - I See It Now
TTITLE3=Reba McEntire - Till You Love Me
TTITLE4=Tractors - Baby Likes To Rock it
TTITLE5=Ken Mellons - Jukebox Junkie
TTITLE6=Lari White - Now I Know
TTITLE7=John Michael Montgomery - If You've Got Love
TTITLE8=Vince Gill - When Love Finds You
TTITLE9=Little Texas - Kick A Little
TTITLE10=Rick Trevino - Doctor Time
TTITLE11=Tanya Tucker (Edit) - You Just Watch Me
TTITLE12=Alabama - We Can't Love Like This Anymore
TTITLE13=Joe Diffie - Pickup Man
TTITLE14=Faith Hill - Take Me As I Am
TTITLE15=Tim McGraw - Not A Moment Too Soon
TTITLE16=Randy Travis - This Is Me
TTITLE17=Mark Chesnutt - Goin' Through The Big D
TTITLE18=Clint Black - Untanglin' My Mind
TTITLE19=David Ball - When The Thought Of You Catches Up With Me
EXTD=YEAR: 1994 ID3G: 2
EXTT0=
EXTT1=
EXTT2=
EXTT3=
EXTT4=
EXTT5=
EXTT6=
EXTT7=
EXTT8=
EXTT9=
EXTT10=
EXTT11=
EXTT12=
EXTT13=
EXTT14=
EXTT15=
EXTT16=
EXTT17=
EXTT18=
EXTT19=
PLAYORDER=
